<svg width="173" height="110" viewBox="0 0 173 110" fill="none" xmlns="http://www.w3.org/2000/svg">
<rect width="173" height="110" fill="white"/>
<path d="M67.7155 64V45.3178H71.6654V53.026H79.6838V45.3178H83.6246V64H79.6838V56.2826H71.6654V64H67.7155ZM93.139 64.2737C91.722 64.2737 90.4966 63.9726 89.4628 63.3706C88.435 62.7624 87.6414 61.9171 87.0819 60.8346C86.5224 59.746 86.2426 58.4841 86.2426 57.0489C86.2426 55.6015 86.5224 54.3366 87.0819 53.2541C87.6414 52.1655 88.435 51.3202 89.4628 50.7181C90.4966 50.11 91.722 49.8059 93.139 49.8059C94.556 49.8059 95.7784 50.11 96.8061 50.7181C97.84 51.3202 98.6367 52.1655 99.1961 53.2541C99.7556 54.3366 100.035 55.6015 100.035 57.0489C100.035 58.4841 99.7556 59.746 99.1961 60.8346C98.6367 61.9171 97.84 62.7624 96.8061 63.3706C95.7784 63.9726 94.556 64.2737 93.139 64.2737ZM93.1573 61.2633C93.8019 61.2633 94.3401 61.0809 94.7719 60.716C95.2037 60.345 95.529 59.8403 95.748 59.2017C95.973 58.5632 96.0855 57.8364 96.0855 57.0215C96.0855 56.2066 95.973 55.4799 95.748 54.8413C95.529 54.2028 95.2037 53.698 94.7719 53.327C94.3401 52.9561 93.8019 52.7706 93.1573 52.7706C92.5065 52.7706 91.9592 52.9561 91.5153 53.327C91.0774 53.698 90.746 54.2028 90.5209 54.8413C90.302 55.4799 90.1926 56.2066 90.1926 57.0215C90.1926 57.8364 90.302 58.5632 90.5209 59.2017C90.746 59.8403 91.0774 60.345 91.5153 60.716C91.9592 61.0809 92.5065 61.2633 93.1573 61.2633ZM102.562 64V49.9883H106.266V52.4604H106.43C106.722 51.6394 107.208 50.9918 107.89 50.5174C108.571 50.0431 109.386 49.8059 110.334 49.8059C111.295 49.8059 112.113 50.0461 112.788 50.5265C113.463 51.0009 113.913 51.6455 114.138 52.4604H114.284C114.57 51.6577 115.087 51.0161 115.835 50.5357C116.589 50.0491 117.48 49.8059 118.508 49.8059C119.815 49.8059 120.877 50.2225 121.691 51.0556C122.512 51.8827 122.923 53.0564 122.923 54.5768V64H119.046V55.343C119.046 54.5646 118.839 53.9808 118.426 53.5916C118.012 53.2024 117.495 53.0078 116.875 53.0078C116.169 53.0078 115.619 53.2328 115.224 53.6828C114.829 54.1268 114.631 54.7136 114.631 55.4434V64H110.863V55.2609C110.863 54.5737 110.666 54.0264 110.27 53.619C109.881 53.2115 109.367 53.0078 108.729 53.0078C108.297 53.0078 107.908 53.1172 107.561 53.3362C107.221 53.549 106.95 53.85 106.749 54.2393C106.549 54.6224 106.448 55.0724 106.448 55.5893V64H102.562ZM132.378 64.2737C130.937 64.2737 129.696 63.9818 128.656 63.3979C127.622 62.808 126.826 61.9749 126.266 60.8985C125.707 59.816 125.427 58.5358 125.427 57.058C125.427 55.6167 125.707 54.3518 126.266 53.2632C126.826 52.1746 127.613 51.3262 128.629 50.7181C129.651 50.11 130.849 49.8059 132.223 49.8059C133.147 49.8059 134.008 49.9549 134.805 50.2529C135.607 50.5448 136.307 50.9857 136.903 51.5756C137.505 52.1655 137.973 52.9074 138.308 53.8014C138.642 54.6893 138.809 55.7292 138.809 56.9212V57.9885H126.978V55.5802H135.151C135.151 55.0207 135.03 54.5251 134.786 54.0933C134.543 53.6615 134.206 53.324 133.774 53.0807C133.348 52.8314 132.852 52.7067 132.287 52.7067C131.697 52.7067 131.174 52.8436 130.718 53.1172C130.268 53.3848 129.915 53.7467 129.66 54.2028C129.404 54.6528 129.274 55.1545 129.267 55.7079V57.9976C129.267 58.6909 129.395 59.2899 129.651 59.7947C129.912 60.2994 130.28 60.6886 130.754 60.9623C131.229 61.236 131.791 61.3728 132.442 61.3728C132.874 61.3728 133.269 61.312 133.628 61.1904C133.987 61.0687 134.294 60.8863 134.549 60.643C134.805 60.3998 134.999 60.1018 135.133 59.7491L138.727 59.9862C138.545 60.8498 138.171 61.6039 137.605 62.2485C137.046 62.8871 136.322 63.3858 135.434 63.7446C134.552 64.0973 133.534 64.2737 132.378 64.2737ZM147.676 64.2737C146.259 64.2737 145.034 63.9726 144 63.3706C142.972 62.7624 142.178 61.9171 141.619 60.8346C141.059 59.746 140.78 58.4841 140.78 57.0489C140.78 55.6015 141.059 54.3366 141.619 53.2541C142.178 52.1655 142.972 51.3202 144 50.7181C145.034 50.11 146.259 49.8059 147.676 49.8059C149.093 49.8059 150.315 50.11 151.343 50.7181C152.377 51.3202 153.174 52.1655 153.733 53.2541C154.293 54.3366 154.572 55.6015 154.572 57.0489C154.572 58.4841 154.293 59.746 153.733 60.8346C153.174 61.9171 152.377 62.7624 151.343 63.3706C150.315 63.9726 149.093 64.2737 147.676 64.2737ZM147.694 61.2633C148.339 61.2633 148.877 61.0809 149.309 60.716C149.741 60.345 150.066 59.8403 150.285 59.2017C150.51 58.5632 150.622 57.8364 150.622 57.0215C150.622 56.2066 150.51 55.4799 150.285 54.8413C150.066 54.2028 149.741 53.698 149.309 53.327C148.877 52.9561 148.339 52.7706 147.694 52.7706C147.044 52.7706 146.496 52.9561 146.052 53.327C145.614 53.698 145.283 54.2028 145.058 54.8413C144.839 55.4799 144.73 56.2066 144.73 57.0215C144.73 57.8364 144.839 58.5632 145.058 59.2017C145.283 59.8403 145.614 60.345 146.052 60.716C146.496 61.0809 147.044 61.2633 147.694 61.2633Z" fill="#383840"/>
<path d="M20.6062 76V34.0736H26.932V52.2936H47.8338V34.0736H54.1801V76H47.8338V57.7186H26.932V76H20.6062Z" fill="#0087FE"/>
<path d="M30.7706 36.6973V47.884H43.6147V36.6973" stroke="#0087FE" stroke-width="4.4747" stroke-linecap="round"/>
<path d="M30.7706 72.7615V61.5747H43.6147V72.7615" stroke="#0087FE" stroke-width="4.4747" stroke-linecap="round"/>
</svg>
